#!OML:ASF E:\VariousWalksJay\Project 1\Capture day 1\Session 1\Actor2.ASF
:FULLY-SPECIFIED
:DEGREES
918
root -6.53947 15.3006 21.9171 17.6373 -32.943 3.67358
lowerback 11.5874 -3.29691 2.70828
upperback 13.7721 -4.39649 -2.4168
thorax 7.83272 -1.93411 -3.88268
lowerneck 8.40371 0.790737 1.21643
upperneck -8.67763 1.26879 0.535039
head -4.37335 0.55436 -0.11856
rclavicle -3.85642e-014 -1.07344e-014
rhumerus -22.97 20.6478 -83.8097
rradius 76.407
rwrist 2.17515
rhand -25.7692 -11.6101
rfingers 7.12502
rthumb 0.768625 -41.5884
lclavicle -3.85642e-014 -1.07344e-014
lhumerus 29.8145 -18.8486 62.2811
lradius 67.3723
lwrist 64.8521
lhand -35.8382 14.9731
lfingers 7.12502
lthumb -8.95371 44.7631
rfemur -69.4667 6.02745 18.0849
rtibia 61.2632
rfoot -10.8471 -7.93798
rtoes 7.22801
lfemur -11.1825 3.81753 -29.1208
ltibia 51.0751
lfoot -24.573 2.07596
ltoes -28.7369
919
root -6.58907 15.2749 21.9834 17.5568 -32.7224 3.85425
lowerback 11.5048 -3.3285 2.68719
upperback 13.7508 -4.43911 -2.38395
thorax 7.85376 -1.95715 -3.83742
lowerneck 8.34382 0.781699 1.12196
upperneck -8.59498 1.2394 0.498342
head -4.33165 0.545891 -0.111538
rclavicle -2.98177e-014 6.0033e-014
rhumerus -23.0716 20.79 -83.7504
rradius 76.571
rwrist 2.14458
rhand -25.828 -11.5878
rfingers 7.12502
rthumb 0.711886 -41.5663
lclavicle -2.98177e-014 6.0033e-014
lhumerus 29.8991 -18.8844 62.4908
lradius 67.2314
lwrist 64.7261
lhand -35.9554 14.6653
lfingers 7.12502
lthumb -9.06675 44.4504
rfemur -69.5939 5.99084 17.8955
rtibia 62.1048
rfoot -11.5524 -8.0845
rtoes 7.01372
lfemur -10.7158 4.06157 -29.067
ltibia 50.7622
lfoot -24.45 1.75367
ltoes -28.8826
920
root -6.63849 15.2497 22.0506 17.4551 -32.5171 4.03614
lowerback 11.4267 -3.35378 2.65479
upperback 13.7248 -4.47414 -2.34699
thorax 7.86873 -1.9779 -3.78149
lowerneck 8.2816 0.775256 1.03348
upperneck -8.5235 1.21376 0.453627
head -4.29348 0.539284 -0.108561
rclavicle 2.50469e-014 -6.67916e-014
rhumerus -23.184 20.9634 -83.6801
rradius 76.7126
rwrist 2.10782
rhand -25.8721 -11.5691
rfingers 7.12502
rthumb 0.669289 -41.5478
lclavicle 2.50469e-014 -6.67916e-014
lhumerus 29.9418 -18.9423 62.7082
lradius 67.1246
lwrist 64.5988
lhand -36.1245 14.2615
lfingers 7.12502
lthumb -9.22998 44.0395
rfemur -69.6832 5.93571 17.7234
rtibia 62.9327
rfoot -12.2537 -8.18061
rtoes 6.79031
lfemur -10.2012 4.33611 -29.0236
ltibia 50.4059
lfoot -24.3277 1.48466
ltoes -28.9947
921
root -6.68753 15.225 22.1188 17.3369 -32.328 4.21393
lowerback 11.3462 -3.37446 2.62094
upperback 13.6961 -4.50336 -2.31048
thorax 7.88263 -1.99597 -3.72568
lowerneck 8.21134 0.771551 0.962289
upperneck -8.45145 1.19295 0.397769
head -4.25334 0.534967 -0.112678
rclavicle 1.03368e-014 5.56597e-015
rhumerus -23.2917 21.166 -83.605
rradius 76.8152
rwrist 2.06498
rhand -25.8931 -11.5608
rfingers 7.12502
rthumb 0.648948 -41.5395
lclavicle 1.03368e-014 5.56597e-015
lhumerus 29.949 -19.0163 62.922
lradius 67.0487
lwrist 64.4912
lhand -36.3024 13.8214
lfingers 7.12502
lthumb -9.40162 43.5917
rfemur -69.7353 5.86175 17.5738
rtibia 63.7452
rfoot -12.9526 -8.22606
rtoes 6.55653
lfemur -9.6429 4.63304 -28.9898
ltibia 50.0133
lfoot -24.2042 1.27989
ltoes -29.0795
922
root -6.73599 15.201 22.1883 17.2073 -32.1559 4.3803
lowerback 11.2628 -3.39293 2.59394
upperback 13.6646 -4.52943 -2.27613
thorax 7.89473 -2.0119 -3.67629
lowerneck 8.12797 0.772927 0.911485
upperneck -8.36876 1.18074 0.334363
head -4.20659 0.534589 -0.123374
rclavicle 6.36111e-015 4.53229e-014
rhumerus -23.383 21.3965 -83.5288
rradius 76.8655
rwrist 2.02734
rhand -25.8911 -11.5601
rfingers 7.12502
rthumb 0.65088 -41.5388
lclavicle 6.36111e-015 4.53229e-014
lhumerus 29.9196 -19.0924 63.1353
lradius 66.9983
lwrist 64.4166
lhand -36.3686 13.5994
lfingers 7.12502
lthumb -9.46548 43.3668
rfemur -69.7491 5.7706 17.4532
rtibia 64.5379
rfoot -13.6481 -8.22666
rtoes 6.29515
lfemur -9.04881 4.94962 -28.9598
ltibia 49.593
lfoot -24.0686 1.13444
ltoes -29.1272
923
root -6.78371 15.1777 22.2592 17.0707 -32.0033 4.53323
lowerback 11.1768 -3.40874 2.57723
upperback 13.6265 -4.55153 -2.24162
thorax 7.90048 -2.02522 -3.63251
lowerneck 8.02129 0.777468 0.876969
upperneck -8.25358 1.1735 0.260314
head -4.1434 0.536793 -0.140547
rclavicle 1.39149e-014 6.36111e-015
rhumerus -23.455 21.6523 -83.4475
rradius 76.8553
rwrist 1.99623
rhand -25.8643 -11.578
rfingers 7.12502
rthumb 0.676772 -41.5566
lclavicle 1.39149e-014 6.36111e-015
lhumerus 29.8518 -19.1787 63.3502
lradius 66.9667
lwrist 64.3628
lhand -36.3626 13.4922
lfingers 7.12502
lthumb -9.45968 43.2599
rfemur -69.7276 5.665 17.363
rtibia 65.3076
rfoot -14.3389 -8.19324
rtoes 5.98905
lfemur -8.42919 5.27156 -28.9364
ltibia 49.1556
lfoot -23.9163 1.05735
ltoes -29.1543
924
root -6.83053 15.1548 22.3313 16.9352 -31.873 4.66905
lowerback 11.0838 -3.42235 2.57268
upperback 13.5792 -4.57016 -2.2077
thorax 7.89912 -2.03598 -3.59629
lowerneck 7.88197 0.78649 0.861779
upperneck -8.09204 1.17389 0.181894
head -4.05709 0.542518 -0.162617
rclavicle 8.5875e-014 3.18055e-014
rhumerus -23.5049 21.9284 -83.3663
rradius 76.7814
rwrist 1.97588
rhand -25.8141 -11.6082
rfingers 7.12502
rthumb 0.725277 -41.5868
lclavicle 8.5875e-014 3.18055e-014
lhumerus 29.7452 -19.2716 63.5664
lradius 66.945
lwrist 64.3159
lhand -36.2593 13.5558
lfingers 7.12502
lthumb -9.35999 43.328
rfemur -69.6773 5.54972 17.3038
rtibia 66.0503
rfoot -15.0262 -8.13476
rtoes 5.64785
lfemur -7.79864 5.58673 -28.92
ltibia 48.7143
lfoot -23.7403 1.04537
ltoes -29.1633
925
root -6.87639 15.1326 22.4048 16.8039 -31.7626 4.78193
lowerback 10.985 -3.43365 2.59118
upperback 13.524 -4.58474 -2.1737
thorax 7.89095 -2.04297 -3.57295
lowerneck 7.69747 0.797328 0.863203
upperneck -7.87133 1.17798 0.100836
head -3.94092 0.549874 -0.188056
rclavicle 1.98785e-014 -3.1408e-014
rhumerus -23.5355 22.2086 -83.2867
rradius 76.6485
rwrist 1.96668
rhand -25.7481 -11.6455
rfingers 7.12502
rthumb 0.789065 -41.6238
lclavicle 1.98785e-014 -3.1408e-014
lhumerus 29.6111 -19.3732 63.7776
lradius 66.9263
lwrist 64.2798
lhand -36.094 13.7128
lfingers 7.12502
lthumb -9.20054 43.492
rfemur -69.5958 5.42834 17.279
rtibia 66.7613
rfoot -15.7105 -8.06411
rtoes 5.26537
lfemur -7.16888 5.87616 -28.907
ltibia 48.2831
lfoot -23.5306 1.09132
ltoes -29.1437
926
root -6.92131 15.1113 22.4795 16.6873 -31.6705 4.86453
lowerback 10.8819 -3.44431 2.63541
upperback 13.4569 -4.59729 -2.13602
thorax 7.87042 -2.04731 -3.55971
lowerneck 7.45857 0.810649 0.876996
upperneck -7.57584 1.18586 0.0147315
head -3.788 0.559181 -0.216658
rclavicle -4.41302e-014 2.78299e-014
rhumerus -23.5619 22.4898 -83.2144
rradius 76.4722
rwrist 1.97236
rhand -25.6756 -11.684
rfingers 7.12502
rthumb 0.859047 -41.662
lclavicle -4.41302e-014 2.78299e-014
lhumerus 29.4424 -19.4809 63.9915
lradius 66.9063
lwrist 64.2346
lhand -35.8552 14.0026
lfingers 7.12502
lthumb -8.97009 43.7919
rfemur -69.488 5.3077 17.2908
rtibia 67.4357
rfoot -16.3915 -7.99123
rtoes 4.84898
lfemur -6.55838 6.12874 -28.8923
ltibia 47.8778
lfoot -23.2786 1.19255
ltoes -29.1033
927
root -6.96544 15.0911 22.5553 16.5873 -31.5957 4.91808
lowerback 10.7776 -3.45644 2.69959
upperback 13.3776 -4.6109 -2.0927
thorax 7.83582 -2.05123 -3.55086
lowerneck 7.1474 0.827825 0.902898
upperneck -7.19035 1.19889 -0.079973
head -3.59022 0.571267 -0.24925
rclavicle -4.29375e-014 -2.38542e-015
rhumerus -23.5869 22.7702 -83.1507
rradius 76.2651
rwrist 1.98614
rhand -25.6021 -11.7207
rfingers 7.12502
rthumb 0.930061 -41.6984
lclavicle -4.29375e-014 -2.38542e-015
lhumerus 29.2399 -19.584 64.2101
lradius 66.8802
lwrist 64.1825
lhand -35.6337 14.2567
lfingers 7.12502
lthumb -8.75629 44.0551
rfemur -69.3552 5.19281 17.3337
rtibia 68.0698
rfoot -17.0662 -7.92458
rtoes 4.39489
lfemur -5.98032 6.33432 -28.8752
ltibia 47.5134
lfoot -22.978 1.32786
ltoes -29.0305
928
root -7.009 15.072 22.6319 16.5075 -31.5392 4.93856
lowerback 10.6714 -3.46657 2.78632
upperback 13.2872 -4.62104 -2.04267
thorax 7.78912 -2.05228 -3.54709
lowerneck 6.76394 0.845889 0.943006
upperneck -6.71116 1.21304 -0.187691
head -3.34747 0.58414 -0.287161
rclavicle 9.85972e-014 -5.56597e-014
rhumerus -23.6186 23.0308 -83.0984
rradius 76.0405
rwrist 2.00546
rhand -25.5288 -11.7534
rfingers 7.12502
rthumb 1.00088 -41.7308
lclavicle 9.85972e-014 -5.56597e-014
lhumerus 29.0102 -19.6875 64.4328
lradius 66.8463
lwrist 64.1268
lhand -35.467 14.4132
lfingers 7.12502
lthumb -8.59542 44.2182
rfemur -69.1987 5.09467 17.4055
rtibia 68.661
rfoot -17.732 -7.86816
rtoes 3.9316
lfemur -5.44696 6.49296 -28.8501
ltibia 47.2044
lfoot -22.6205 1.48941
ltoes -28.9411
